<svg width="193" height="40" viewBox="0 0 193 40" fill="none" xmlns="http://www.w3.org/2000/svg">
<path d="M171.999 29.7899C170.986 29.7899 170.078 29.6291 169.275 29.3078C168.471 28.9783 167.788 28.5243 167.225 27.9458C166.671 27.3672 166.246 26.6963 165.948 25.933C165.651 25.1616 165.502 24.342 165.502 23.4743V22.9922C165.502 22.0038 165.643 21.0999 165.924 20.2803C166.206 19.4606 166.607 18.7496 167.129 18.1469C167.659 17.5443 168.303 17.0822 169.058 16.7609C169.813 16.4314 170.665 16.2667 171.613 16.2667C172.537 16.2667 173.356 16.4194 174.071 16.7247C174.787 17.03 175.385 17.4639 175.868 18.0264C176.358 18.5888 176.728 19.2638 176.977 20.0513C177.225 20.8307 177.35 21.6984 177.35 22.6547V24.101H166.985V21.7868H173.939V21.5217C173.939 21.0396 173.851 20.6097 173.674 20.232C173.506 19.8464 173.248 19.5411 172.903 19.3161C172.557 19.0911 172.115 18.9785 171.576 18.9785C171.119 18.9785 170.725 19.079 170.395 19.2799C170.066 19.4808 169.797 19.762 169.588 20.1236C169.387 20.4851 169.234 20.911 169.13 21.4012C169.034 21.8833 168.986 22.4136 168.986 22.9922V23.4743C168.986 23.9965 169.058 24.4786 169.202 24.9206C169.355 25.3625 169.568 25.7442 169.841 26.0656C170.123 26.387 170.46 26.6361 170.854 26.8129C171.256 26.9897 171.709 27.078 172.215 27.078C172.842 27.078 173.425 26.9575 173.963 26.7164C174.51 26.4673 174.98 26.0937 175.373 25.5955L177.061 27.4275C176.788 27.8212 176.414 28.1989 175.94 28.5605C175.474 28.922 174.912 29.2194 174.253 29.4524C173.594 29.6774 172.842 29.7899 171.999 29.7899Z" fill="#201D40"/>
<path d="M158.512 27.078C158.937 27.078 159.315 26.9976 159.645 26.837C159.974 26.6682 160.231 26.4352 160.416 26.1379C160.609 25.8325 160.709 25.475 160.717 25.0652H163.983C163.976 25.9812 163.731 26.7967 163.248 27.5119C162.766 28.219 162.12 28.7774 161.308 29.1872C160.496 29.589 159.589 29.7899 158.584 29.7899C157.571 29.7899 156.687 29.6212 155.932 29.2837C155.185 28.9461 154.562 28.4801 154.064 27.8855C153.566 27.2829 153.193 26.5839 152.943 25.7884C152.694 24.9848 152.57 24.1251 152.57 23.2091V22.8595C152.57 21.9355 152.694 21.0757 152.943 20.2803C153.193 19.4768 153.566 18.7777 154.064 18.1831C154.562 17.5805 155.185 17.1103 155.932 16.7729C156.68 16.4354 157.556 16.2667 158.559 16.2667C159.628 16.2667 160.564 16.4716 161.368 16.8814C162.179 17.2912 162.815 17.8777 163.272 18.641C163.738 19.3964 163.976 20.2923 163.983 21.3288H160.717C160.709 20.895 160.617 20.5013 160.44 20.1477C160.271 19.7942 160.022 19.5129 159.693 19.304C159.371 19.0871 158.973 18.9785 158.5 18.9785C157.994 18.9785 157.58 19.0871 157.258 19.304C156.937 19.5129 156.687 19.8021 156.511 20.1717C156.334 20.5334 156.21 20.9472 156.137 21.4132C156.073 21.8712 156.041 22.3533 156.041 22.8595V23.2091C156.041 23.7153 156.073 24.2014 156.137 24.6675C156.201 25.1335 156.322 25.5473 156.499 25.9089C156.683 26.2705 156.937 26.5557 157.258 26.7646C157.58 26.9735 157.997 27.078 158.512 27.078Z" fill="#201D40"/>
<path d="M147.797 19.3522V29.5488H144.325V16.5078H147.592L147.797 19.3522ZM151.726 16.4234L151.666 19.6415C151.497 19.6174 151.292 19.5973 151.051 19.5812C150.818 19.5571 150.605 19.545 150.412 19.545C149.922 19.545 149.497 19.6093 149.135 19.7379C148.781 19.8584 148.484 20.0392 148.242 20.2803C148.01 20.5213 147.833 20.8146 147.713 21.1601C147.6 21.5056 147.536 21.8993 147.52 22.3413L146.82 22.1243C146.82 21.2806 146.905 20.5053 147.074 19.7982C147.243 19.083 147.488 18.4603 147.809 17.93C148.138 17.3996 148.54 16.9899 149.014 16.7006C149.488 16.4113 150.03 16.2667 150.642 16.2667C150.834 16.2667 151.031 16.2828 151.232 16.3149C151.432 16.339 151.598 16.3751 151.726 16.4234Z" fill="#201D40"/>
<path d="M136.998 29.7899C135.985 29.7899 135.077 29.6291 134.273 29.3078C133.47 28.9783 132.787 28.5243 132.224 27.9458C131.67 27.3672 131.245 26.6963 130.947 25.933C130.649 25.1616 130.501 24.342 130.501 23.4743V22.9922C130.501 22.0038 130.642 21.0999 130.923 20.2803C131.204 19.4606 131.606 18.7496 132.128 18.1469C132.658 17.5443 133.301 17.0822 134.057 16.7609C134.811 16.4314 135.664 16.2667 136.611 16.2667C137.536 16.2667 138.356 16.4194 139.07 16.7247C139.785 17.03 140.384 17.4639 140.867 18.0264C141.357 18.5888 141.726 19.2638 141.976 20.0513C142.224 20.8307 142.349 21.6984 142.349 22.6547V24.101H131.983V21.7868H138.938V21.5217C138.938 21.0396 138.849 20.6097 138.673 20.232C138.504 19.8464 138.247 19.5411 137.902 19.3161C137.556 19.0911 137.114 18.9785 136.575 18.9785C136.118 18.9785 135.724 19.079 135.394 19.2799C135.065 19.4808 134.796 19.762 134.587 20.1236C134.386 20.4851 134.233 20.911 134.129 21.4012C134.033 21.8833 133.985 22.4136 133.985 22.9922V23.4743C133.985 23.9965 134.057 24.4786 134.201 24.9206C134.354 25.3625 134.566 25.7442 134.84 26.0656C135.121 26.387 135.459 26.6361 135.853 26.8129C136.255 26.9897 136.708 27.078 137.214 27.078C137.841 27.078 138.424 26.9575 138.962 26.7164C139.508 26.4673 139.979 26.0937 140.372 25.5955L142.06 27.4275C141.787 27.8212 141.413 28.1989 140.939 28.5605C140.473 28.922 139.911 29.2194 139.252 29.4524C138.593 29.6774 137.841 29.7899 136.998 29.7899Z" fill="#201D40"/>
<path d="M113.085 19.2075V29.5488H109.601V16.5078H112.868L113.085 19.2075ZM112.602 22.5703H111.639C111.639 21.6623 111.747 20.8266 111.964 20.0633C112.189 19.2919 112.514 18.625 112.94 18.0626C113.374 17.4921 113.909 17.0502 114.543 16.7368C115.178 16.4234 115.913 16.2667 116.748 16.2667C117.328 16.2667 117.857 16.3551 118.34 16.5319C118.822 16.7006 119.236 16.9697 119.581 17.3393C119.935 17.701 120.208 18.1751 120.401 18.7616C120.593 19.3402 120.69 20.0352 120.69 20.8467V29.5488H117.219V21.2324C117.219 20.6378 117.139 20.1798 116.978 19.8584C116.817 19.537 116.588 19.312 116.291 19.1834C116.001 19.0549 115.652 18.9906 115.243 18.9906C114.793 18.9906 114.399 19.083 114.061 19.2678C113.731 19.4527 113.459 19.7098 113.241 20.0392C113.025 20.3606 112.864 20.7382 112.759 21.1722C112.655 21.6061 112.602 22.0721 112.602 22.5703ZM120.365 22.1726L119.123 22.3292C119.123 21.4775 119.227 20.686 119.437 19.9548C119.654 19.2236 119.971 18.5809 120.388 18.0264C120.815 17.472 121.341 17.0421 121.968 16.7368C122.595 16.4234 123.317 16.2667 124.138 16.2667C124.764 16.2667 125.335 16.3591 125.848 16.5439C126.363 16.7207 126.801 17.0059 127.162 17.3996C127.533 17.7854 127.814 18.2916 128.006 18.9183C128.207 19.545 128.307 20.3124 128.307 21.2203V29.5488H124.824V21.2203C124.824 20.6178 124.744 20.1598 124.583 19.8464C124.431 19.5249 124.206 19.304 123.908 19.1834C123.619 19.0549 123.274 18.9906 122.872 18.9906C122.454 18.9906 122.088 19.075 121.774 19.2437C121.461 19.4044 121.2 19.6294 120.991 19.9186C120.782 20.2079 120.626 20.5454 120.521 20.9311C120.417 21.3087 120.365 21.7226 120.365 22.1726Z" fill="#201D40"/>
<path d="M91.7033 19.2075V29.5488H88.22V16.5078H91.4863L91.7033 19.2075ZM91.2212 22.5703H90.257C90.257 21.6623 90.3654 20.8266 90.5823 20.0633C90.8073 19.2919 91.1328 18.625 91.5586 18.0626C91.9925 17.4921 92.5269 17.0502 93.1616 16.7368C93.7964 16.4234 94.5317 16.2667 95.3673 16.2667C95.9458 16.2667 96.4761 16.3551 96.9583 16.5319C97.4404 16.7006 97.8541 16.9697 98.1997 17.3393C98.5533 17.701 98.8264 18.1751 99.0192 18.7616C99.2121 19.3402 99.3085 20.0352 99.3085 20.8467V29.5488H95.8374V21.2324C95.8374 20.6378 95.757 20.1798 95.5963 19.8584C95.4356 19.537 95.2066 19.312 94.9092 19.1834C94.6201 19.0549 94.2705 18.9906 93.8607 18.9906C93.4107 18.9906 93.017 19.083 92.6795 19.2678C92.3501 19.4527 92.0768 19.7098 91.8599 20.0392C91.643 20.3606 91.4822 20.7382 91.3778 21.1722C91.2734 21.6061 91.2212 22.0721 91.2212 22.5703ZM98.9832 22.1726L97.7416 22.3292C97.7416 21.4775 97.8462 20.686 98.055 19.9548C98.272 19.2236 98.5893 18.5809 99.0073 18.0264C99.4331 17.472 99.9594 17.0421 100.586 16.7368C101.213 16.4234 101.936 16.2667 102.755 16.2667C103.382 16.2667 103.953 16.3591 104.467 16.5439C104.982 16.7207 105.419 17.0059 105.781 17.3996C106.15 17.7854 106.431 18.2916 106.624 18.9183C106.825 19.545 106.926 20.3124 106.926 21.2203V29.5488H103.443V21.2203C103.443 20.6178 103.362 20.1598 103.202 19.8464C103.049 19.5249 102.824 19.304 102.527 19.1834C102.237 19.0549 101.892 18.9906 101.49 18.9906C101.072 18.9906 100.707 19.075 100.393 19.2437C100.08 19.4044 99.8188 19.6294 99.6098 19.9186C99.401 20.2079 99.2442 20.5454 99.1398 20.9311C99.0354 21.3087 98.9832 21.7226 98.9832 22.1726Z" fill="#201D40"/>
<path d="M73.7447 23.1609V22.9078C73.7447 21.9515 73.8813 21.0718 74.1544 20.2682C74.4277 19.4567 74.8254 18.7535 75.3477 18.1589C75.87 17.5643 76.5128 17.1024 77.2761 16.7729C78.0394 16.4354 78.9153 16.2667 79.9036 16.2667C80.8919 16.2667 81.7718 16.4354 82.5432 16.7729C83.3146 17.1024 83.9614 17.5643 84.4837 18.1589C85.014 18.7535 85.4158 19.4567 85.6889 20.2682C85.9621 21.0718 86.0988 21.9515 86.0988 22.9078V23.1609C86.0988 24.109 85.9621 24.9888 85.6889 25.8005C85.4158 26.6039 85.014 27.307 84.4837 27.9096C83.9614 28.5042 83.3186 28.9663 82.5553 29.2957C81.7919 29.6251 80.9161 29.7899 79.9277 29.7899C78.9394 29.7899 78.0596 29.6251 77.2882 29.2957C76.5249 28.9663 75.878 28.5042 75.3477 27.9096C74.8254 27.307 74.4277 26.6039 74.1544 25.8005C73.8813 24.9888 73.7447 24.109 73.7447 23.1609ZM77.2158 22.9078V23.1609C77.2158 23.7072 77.2641 24.2174 77.3605 24.6916C77.4569 25.1656 77.6095 25.5834 77.8185 25.945C78.0354 26.2986 78.3166 26.5758 78.6622 26.7767C79.0077 26.9776 79.4295 27.078 79.9277 27.078C80.4098 27.078 80.8237 26.9776 81.1692 26.7767C81.5146 26.5758 81.7919 26.2986 82.0008 25.945C82.2097 25.5834 82.3624 25.1656 82.4588 24.6916C82.5632 24.2174 82.6155 23.7072 82.6155 23.1609V22.9078C82.6155 22.3774 82.5632 21.8792 82.4588 21.4132C82.3624 20.9391 82.2057 20.5213 81.9888 20.1598C81.7798 19.7901 81.5026 19.5008 81.1571 19.2919C80.8116 19.083 80.3938 18.9785 79.9036 18.9785C79.4135 18.9785 78.9956 19.083 78.6502 19.2919C78.3127 19.5008 78.0354 19.7901 77.8185 20.1598C77.6095 20.5213 77.4569 20.9391 77.3605 21.4132C77.2641 21.8792 77.2158 22.3774 77.2158 22.9078Z" fill="#201D40"/>
<path d="M66.8144 27.078C67.2402 27.078 67.6178 26.9976 67.9473 26.837C68.2767 26.6682 68.5339 26.4352 68.7186 26.1379C68.9116 25.8325 69.012 25.475 69.02 25.0652H72.2862C72.2783 25.9812 72.0331 26.7967 71.551 27.5119C71.0689 28.219 70.4221 28.7774 69.6106 29.1872C68.7991 29.589 67.8911 29.7899 66.8866 29.7899C65.8742 29.7899 64.9903 29.6212 64.2351 29.2837C63.4878 28.9461 62.865 28.4801 62.3669 27.8855C61.8687 27.2829 61.495 26.5839 61.2459 25.7884C60.9969 24.9848 60.8723 24.1251 60.8723 23.2091V22.8595C60.8723 21.9355 60.9969 21.0757 61.2459 20.2803C61.495 19.4768 61.8687 18.7777 62.3669 18.1831C62.865 17.5805 63.4878 17.1103 64.2351 16.7729C64.9823 16.4354 65.8581 16.2667 66.8626 16.2667C67.9312 16.2667 68.8673 16.4716 69.6709 16.8814C70.4824 17.2912 71.1172 17.8777 71.5751 18.641C72.0412 19.3964 72.2783 20.2923 72.2862 21.3288H69.02C69.012 20.895 68.9195 20.5013 68.7428 20.1477C68.574 19.7942 68.3249 19.5129 67.9955 19.304C67.6741 19.0871 67.2763 18.9785 66.8023 18.9785C66.2961 18.9785 65.8823 19.0871 65.5609 19.304C65.2394 19.5129 64.9903 19.8021 64.8136 20.1717C64.6368 20.5334 64.5123 20.9472 64.4399 21.4132C64.3757 21.8712 64.3435 22.3533 64.3435 22.8595V23.2091C64.3435 23.7153 64.3757 24.2014 64.4399 24.6675C64.5042 25.1335 64.6248 25.5473 64.8016 25.9089C64.9863 26.2705 65.2394 26.5557 65.5609 26.7646C65.8823 26.9735 66.3001 27.078 66.8144 27.078Z" fill="#201D40"/>
<path d="M59.7755 26.7285V29.5488H50.4346V26.7285H59.7755ZM51.6158 12V29.5488H48V12H51.6158ZM58.5582 19.1473V21.8954H50.4346V19.1473H58.5582ZM59.7635 12V14.8324H50.4346V12H59.7635Z" fill="#201D40"/>
<path d="M31.1111 0H8.88889C3.97969 0 0 3.97969 0 8.88889V31.1111C0 36.0203 3.97969 40 8.88889 40H31.1111C36.0203 40 40 36.0203 40 31.1111V8.88889C40 3.97969 36.0203 0 31.1111 0Z" fill="url(#paint0_linear_8_354)"/>
<path fill-rule="evenodd" clip-rule="evenodd" d="M17.0263 9V10.7722H15.4314V9H17.0263ZM12.3361 10.2082L13.6652 11.5373L12.5373 12.6652L11.2083 11.3361L12.3361 10.2082ZM18.7399 11.5373L20.0691 10.2082L21.1968 11.3361L19.8677 12.6652L18.7399 11.5373ZM10 14.4314H11.7722V16.0263H10V14.4314ZM11.2083 19.0691L12.5373 17.7399L13.6652 18.8677L12.3361 20.1968L11.2083 19.0691Z" fill="white"/>
<path fill-rule="evenodd" clip-rule="evenodd" d="M14.7526 13.7526C14.9661 13.539 15.2821 13.4644 15.5687 13.5599L30.4547 18.522C30.7803 18.6305 31 18.9353 31 19.2785C31 19.6217 30.7803 19.9266 30.4547 20.035L23.3899 22.3899L21.035 29.4547C20.9265 29.7803 20.6217 30 20.2785 30C19.9353 30 19.6305 29.7803 19.522 29.4547L14.5599 14.5687C14.4644 14.2821 14.539 13.9662 14.7526 13.7526ZM16.5774 15.5774L20.2785 26.6807L22.003 21.5074C22.0823 21.2692 22.2692 21.0824 22.5073 21.003L27.6807 19.2785L16.5774 15.5774Z" fill="white"/>
<defs>
<linearGradient id="paint0_linear_8_354" x1="15" y1="-1" x2="32.5" y2="40" gradientUnits="userSpaceOnUse">
<stop stop-color="#FF772A"/>
<stop offset="1" stop-color="#C80F5D"/>
</linearGradient>
</defs>
</svg>
